<svg id="Layer_1" data-name="Layer 1" xmlns="http://www.w3.org/2000/svg" viewBox="0 0 442.2 555.29"><defs><style>.cls-1,.cls-2{fill:#00d058;}.cls-2{stroke:#00d058;}.cls-2,.cls-3{stroke-miterlimit:10;}.cls-3{fill:#fff;stroke:#fff;}</style></defs><path class="cls-1" d="M757.1,499.13c0,118-95.7,213.75-213.75,213.75S329.6,617.18,329.6,499.13A213.74,213.74,0,0,1,543.35,285.38C661.4,285.38,757.1,381.08,757.1,499.13Z" transform="translate(-322.4 -277.91)"/><path class="cls-1" d="M749.6,499.13c-.27,82.12-50.19,158-126,190.1-76.73,32.51-168,14.27-226.59-44.72-62-62.4-77.8-160.64-37.48-239.13a209.09,209.09,0,0,1,101-95.28c42.11-18.68,90.7-22.19,135.19-10.5,78.83,20.73,139,87.91,151.52,168.34a208.67,208.67,0,0,1,2.29,31.19c0,9.65,15,9.67,15,0-.14-44.1-13.26-87.79-38.18-124.25a221.38,221.38,0,0,0-237-90.37c-49.65,12.4-93.65,42.41-124.13,83.38-57.15,76.83-57,186.33.35,263a221.12,221.12,0,0,0,232.87,82.61c84.46-21.6,150.6-94.14,163.5-180.5a234.87,234.87,0,0,0,2.62-33.82C764.63,489.47,749.63,489.46,749.6,499.13Z" transform="translate(-322.4 -277.91)"/><path class="cls-2" d="M322.9,833.21V499.13s4.65,199.47,198.87,209.26" transform="translate(-322.4 -277.91)"/><path class="cls-3" d="M581.09,405.69H505.6a28.07,28.07,0,0,0-24.3,14L443.55,485.1a28.07,28.07,0,0,0,0,28.06l37.75,65.38a28.07,28.07,0,0,0,24.3,14h75.49a28.08,28.08,0,0,0,24.31-14l37.74-65.38a28,28,0,0,0,0-28.06L605.4,419.72A28.08,28.08,0,0,0,581.09,405.69Z" transform="translate(-322.4 -277.91)"/></svg>